<svg xmlns="http://www.w3.org/2000/svg" xmlns:xlink="http://www.w3.org/1999/xlink" width="32.759" height="33.43" viewBox="0 0 32.759 33.43">
  <defs>
    <linearGradient id="linear-gradient" y1="0.5" x2="1" y2="0.5" gradientUnits="objectBoundingBox">
      <stop offset="0" stop-color="#98cc27"/>
      <stop offset="1" stop-color="#44b2e2"/>
    </linearGradient>
  </defs>
  <g id="Grupo_50" data-name="Grupo 50" transform="translate(-2.945 -3)">
    <path id="Trazado_97" data-name="Trazado 97" d="M32.845,10.02A15.666,15.666,0,0,0,20.759,3H19.731a16.7,16.7,0,0,0-1.967,33.288,16.8,16.8,0,0,0,2.122.141,16.1,16.1,0,0,0,9.052-2.79,1.287,1.287,0,1,0-1.44-2.134,13.508,13.508,0,0,1-9.425,2.237A14.385,14.385,0,0,1,5.587,21.258,14.225,14.225,0,0,1,19.731,5.572h.939a13.135,13.135,0,0,1,10.042,5.876A14.056,14.056,0,0,1,32.4,23.8a1.129,1.129,0,0,0-.051.257,3.192,3.192,0,0,1-6.185-1.131V13.286a1.286,1.286,0,1,0-2.572,0A6.353,6.353,0,0,0,19.731,12,6.431,6.431,0,0,0,13.3,18.429V21a6.437,6.437,0,0,0,10.968,4.564,5.729,5.729,0,0,0,10.556-.784,1.612,1.612,0,0,0,.064-.309A16.617,16.617,0,0,0,32.845,10.02ZM19.731,24.858A3.869,3.869,0,0,1,15.873,21V18.429a3.857,3.857,0,1,1,7.715,0V21A3.869,3.869,0,0,1,19.731,24.858Z" transform="translate(0)" fill="url(#linear-gradient)"/>
  </g>
</svg>
