<svg xmlns="http://www.w3.org/2000/svg" xmlns:xlink="http://www.w3.org/1999/xlink" width="28" height="24" viewBox="0 0 28 24">
  <defs>
    <linearGradient id="linear-gradient" y1="0.5" x2="1" y2="0.5" gradientUnits="objectBoundingBox">
      <stop offset="0" stop-color="#98cc27"/>
      <stop offset="1" stop-color="#44b2e2"/>
    </linearGradient>
  </defs>
  <g id="Grupo_53" data-name="Grupo 53" transform="translate(38.345 -38.285)">
    <g id="Grupo_51" data-name="Grupo 51">
      <path id="Trazado_98" data-name="Trazado 98" d="M-15.345,62.285h-18a5.006,5.006,0,0,1-5-5v-14a5.006,5.006,0,0,1,5-5h18a5.006,5.006,0,0,1,5,5v14A5.006,5.006,0,0,1-15.345,62.285Zm-18-22a3,3,0,0,0-3,3v14a3,3,0,0,0,3,3h18a3,3,0,0,0,3-3v-14a3,3,0,0,0-3-3Z" fill="url(#linear-gradient)"/>
    </g>
    <g id="Grupo_52" data-name="Grupo 52">
      <path id="Trazado_99" data-name="Trazado 99" d="M-24.345,53.285a1.009,1.009,0,0,1-.524-.148l-13-8a1,1,0,0,1-.327-1.376,1,1,0,0,1,1.375-.327l12.476,7.677,12.476-7.677a1,1,0,0,1,1.376.327,1,1,0,0,1-.328,1.376l-13,8A1,1,0,0,1-24.345,53.285Z" fill="url(#linear-gradient)"/>
    </g>
  </g>
</svg>
