<svg xmlns="http://www.w3.org/2000/svg" xmlns:xlink="http://www.w3.org/1999/xlink" width="27.379" height="31.942" viewBox="0 0 27.379 31.942">
  <defs>
    <linearGradient id="linear-gradient" y1="0.5" x2="1" y2="0.5" gradientUnits="objectBoundingBox">
      <stop offset="0" stop-color="#98cc27"/>
      <stop offset="1" stop-color="#44b2e2"/>
    </linearGradient>
  </defs>
  <g id="about" transform="translate(-81.48 -49.448)">
    <path id="Trazado_87" data-name="Trazado 87" d="M94.465,65.419a7.985,7.985,0,1,0-7.985-7.985A7.985,7.985,0,0,0,94.465,65.419Zm0-13.689a5.7,5.7,0,1,1-5.7,5.7A5.7,5.7,0,0,1,94.465,51.73Z" transform="translate(0.704)" fill="url(#linear-gradient)"/>
    <path id="Trazado_88" data-name="Trazado 88" d="M96.31,65.448H94.029A12.549,12.549,0,0,0,81.48,78a1.141,1.141,0,0,0,1.141,1.141h25.1A1.141,1.141,0,0,0,108.859,78,12.549,12.549,0,0,0,96.31,65.448ZM83.83,76.856a10.266,10.266,0,0,1,10.2-9.126H96.31a10.266,10.266,0,0,1,10.2,9.126Z" transform="translate(0 2.252)" fill="url(#linear-gradient)"/>
  </g>
</svg>
