<svg xmlns="http://www.w3.org/2000/svg" xmlns:xlink="http://www.w3.org/1999/xlink" width="29" height="27.792" viewBox="0 0 29 27.792">
  <defs>
    <linearGradient id="linear-gradient" y1="0.5" x2="1" y2="0.5" gradientUnits="objectBoundingBox">
      <stop offset="0" stop-color="#98cc27"/>
      <stop offset="1" stop-color="#44b2e2"/>
    </linearGradient>
  </defs>
  <g id="_22.-Message" data-name="22.-Message" transform="translate(121.875 1.096)">
    <g id="Layer-1" transform="translate(-121.875 -1.096)">
      <g id="Grupo_54" data-name="Grupo 54">
        <path id="Trazado_100" data-name="Trazado 100" d="M-117.13,26.7a.761.761,0,0,1-.655-.374.76.76,0,0,1-.012-.754c.018-.033,1.7-3.157,1.109-5.515h-2.233a2.957,2.957,0,0,1-2.953-2.955V1.859A2.957,2.957,0,0,1-118.922-1.1h23.095a2.958,2.958,0,0,1,2.953,2.955V17.1a2.957,2.957,0,0,1-2.953,2.955h-13.8A8.114,8.114,0,0,1-117.13,26.7ZM-118.922.427a1.432,1.432,0,0,0-1.43,1.432V17.1a1.432,1.432,0,0,0,1.43,1.432h2.782a.762.762,0,0,1,.7.471c.836,2.024.161,4.483-.421,5.97,1.566-.424,4.1-1.74,4.865-5.819a.762.762,0,0,1,.749-.622h14.416A1.432,1.432,0,0,0-94.4,17.1V1.859A1.432,1.432,0,0,0-95.827.427Z" transform="translate(121.875 1.096)" fill="url(#linear-gradient)"/>
      </g>
    </g>
  </g>
</svg>
