<?xml version="1.0" encoding="UTF-8" standalone="no"?>
<!DOCTYPE svg PUBLIC "-//W3C//DTD SVG 1.1//EN" "http://www.w3.org/Graphics/SVG/1.1/DTD/svg11.dtd">
<svg width="100%" height="100%" viewBox="0 0 20 20" version="1.1" xmlns="http://www.w3.org/2000/svg" xmlns:xlink="http://www.w3.org/1999/xlink" xml:space="preserve" xmlns:serif="http://www.serif.com/" style="fill-rule:evenodd;clip-rule:evenodd;stroke-linejoin:round;stroke-miterlimit:2;">
    <g transform="matrix(1,0,0,1,-284,-7279)">
        <g id="Page-1">
            <g id="Dribbble-Light-Preview">
                <g id="icons">
                    <path id="instagram---167-" serif:id="instagram-[#167]" d="M289.87,7279.12C288.242,7279.2 286.831,7279.59 285.691,7280.73C284.548,7281.87 284.155,7283.29 284.082,7284.9C284.036,7285.9 283.768,7293.5 284.544,7295.49C285.068,7296.83 286.098,7297.87 287.455,7298.39C288.088,7298.64 288.81,7298.81 289.87,7298.85C298.73,7299.26 302.015,7299.04 303.4,7295.49C303.646,7294.86 303.815,7294.14 303.862,7293.08C304.267,7284.2 303.796,7282.27 302.252,7280.73C301.027,7279.51 299.586,7278.68 289.87,7279.12M289.951,7297.07C288.981,7297.02 288.455,7296.86 288.103,7296.73C287.22,7296.38 286.556,7295.72 286.215,7294.84C285.624,7293.33 285.82,7286.14 285.873,7284.98C285.924,7283.84 286.155,7282.8 286.959,7281.99C287.954,7281 289.24,7280.51 297.993,7280.91C299.135,7280.96 300.179,7281.19 300.985,7281.99C301.98,7282.99 302.474,7284.28 302.072,7293C302.028,7293.97 301.866,7294.49 301.73,7294.84C300.829,7297.15 298.757,7297.47 289.951,7297.07M298.09,7283.69C298.09,7284.35 298.624,7284.88 299.284,7284.88C299.943,7284.88 300.479,7284.35 300.479,7283.69C300.479,7283.03 299.943,7282.5 299.284,7282.5C298.624,7282.5 298.09,7283.03 298.09,7283.69M288.863,7288.99C288.863,7291.8 291.15,7294.09 293.972,7294.09C296.794,7294.09 299.082,7291.8 299.082,7288.99C299.082,7286.17 296.794,7283.89 293.972,7283.89C291.15,7283.89 288.863,7286.17 288.863,7288.99M290.656,7288.99C290.656,7287.16 292.14,7285.68 293.972,7285.68C295.804,7285.68 297.289,7287.16 297.289,7288.99C297.289,7290.82 295.804,7292.3 293.972,7292.3C292.14,7292.3 290.656,7290.82 290.656,7288.99" style="fill:white;"/>
                </g>
            </g>
        </g>
    </g>
</svg>
