<?xml version="1.0" encoding="UTF-8" standalone="no"?>
<!DOCTYPE svg PUBLIC "-//W3C//DTD SVG 1.1//EN" "http://www.w3.org/Graphics/SVG/1.1/DTD/svg11.dtd">
<svg width="100%" height="100%" viewBox="0 0 20 17" version="1.1" xmlns="http://www.w3.org/2000/svg" xmlns:xlink="http://www.w3.org/1999/xlink" xml:space="preserve" xmlns:serif="http://www.serif.com/" style="fill-rule:evenodd;clip-rule:evenodd;stroke-linejoin:round;stroke-miterlimit:2;">
    <g transform="matrix(1,0,0,1,-4,-7400)">
        <g id="Page-1">
            <g id="Dribbble-Light-Preview">
                <g id="icons">
                    <path id="vimeo---144-" serif:id="vimeo-[#144]" d="M23.99,7403.93C23.9,7405.85 22.541,7408.47 19.911,7411.79C17.192,7415.26 14.891,7417 13.009,7417C11.843,7417 10.857,7415.94 10.051,7413.82L8.437,7407.99C7.839,7405.88 7.197,7404.82 6.51,7404.82C6.36,7404.82 5.837,7405.12 4.941,7405.74L4,7404.55C4.986,7403.7 5.957,7402.84 6.913,7401.99C8.228,7400.87 9.214,7400.28 9.871,7400.22C11.425,7400.08 12.381,7401.12 12.74,7403.36C13.128,7405.77 13.397,7407.27 13.547,7407.86C13.995,7409.86 14.488,7410.86 15.026,7410.86C15.444,7410.86 16.072,7410.22 16.908,7408.92C17.745,7407.63 18.193,7406.64 18.253,7405.96C18.372,7404.85 17.924,7404.29 16.908,7404.29C16.43,7404.29 15.937,7404.39 15.429,7404.6C16.415,7401.45 18.298,7399.91 21.077,7400C23.138,7400.06 24.11,7401.37 23.99,7403.93Z" style="fill:white;"/>
                </g>
            </g>
        </g>
    </g>
</svg>
