<svg xmlns="http://www.w3.org/2000/svg" xmlns:xlink="http://www.w3.org/1999/xlink" width="32.379" height="28.909" viewBox="0 0 32.379 28.909">
  <defs>
    <linearGradient id="linear-gradient" y1="0.5" x2="1" y2="0.5" gradientUnits="objectBoundingBox">
      <stop offset="0" stop-color="#98cc27"/>
      <stop offset="1" stop-color="#44b2e2"/>
    </linearGradient>
  </defs>
  <g id="layer1" transform="translate(-2 -3.5)">
    <path id="path1278-8" d="M15.251,3.5a2.888,2.888,0,0,0-2.262,1.168,3.969,3.969,0,0,0-.771,1.994H2v0H2V14.65H2v17.76H34.372V14.624l.007,0V6.666h-.007v0H24.157a3.961,3.961,0,0,0-.768-1.99A2.889,2.889,0,0,0,21.128,3.5Zm0,1.84h5.877a.942.942,0,0,1,.76.438,2.543,2.543,0,0,1,.272.883h-7.94a2.55,2.55,0,0,1,.272-.883A.941.941,0,0,1,15.251,5.34ZM3.88,8.508H32.5v4.854L21.568,17.52a3.082,3.082,0,0,0-2.744-1.692H17.465a3.076,3.076,0,0,0-2.7,1.613L3.88,13.385ZM32.5,15.336V30.577H3.877V15.349L14.4,19.27v.974a3.059,3.059,0,0,0,3.067,3.015h1.359A3.062,3.062,0,0,0,21.9,20.243v-.87ZM17.465,17.67h1.363A1.111,1.111,0,0,1,20,18.785l.019.459v1a1.134,1.134,0,0,1-1.193,1.168h-1.36a1.133,1.133,0,0,1-1.193-1.168v-1.11l.037-.4a1.107,1.107,0,0,1,1.156-1.059Z" fill="url(#linear-gradient)"/>
  </g>
</svg>
