<svg xmlns="http://www.w3.org/2000/svg" xmlns:xlink="http://www.w3.org/1999/xlink" width="28.379" height="28.379" viewBox="0 0 28.379 28.379">
  <defs>
    <linearGradient id="linear-gradient" y1="0.5" x2="1" y2="0.5" gradientUnits="objectBoundingBox">
      <stop offset="0" stop-color="#98cc27"/>
      <stop offset="1" stop-color="#44b2e2"/>
    </linearGradient>
  </defs>
  <g id="Grupo_44" data-name="Grupo 44" transform="translate(-167.978 -87.851)">
    <path id="Trazado_89" data-name="Trazado 89" d="M182.167,116.23a14.189,14.189,0,1,0-14.189-14.189A14.206,14.206,0,0,0,182.167,116.23Zm0-26.605a12.416,12.416,0,1,1-12.416,12.416A12.429,12.429,0,0,1,182.167,89.625Z" fill="url(#linear-gradient)"/>
    <path id="Trazado_90" data-name="Trazado 90" d="M188.7,108.563a.887.887,0,1,0,1.254-1.254l-5.207-5.207V92.528a.887.887,0,0,0-1.774,0v9.941a.884.884,0,0,0,.26.627Z" transform="translate(-1.697 -0.429)" fill="url(#linear-gradient)"/>
  </g>
</svg>
