<svg xmlns="http://www.w3.org/2000/svg" xmlns:xlink="http://www.w3.org/1999/xlink" width="30" height="28.486" viewBox="0 0 30 28.486">
  <defs>
    <linearGradient id="linear-gradient" y1="0.5" x2="1" y2="0.5" gradientUnits="objectBoundingBox">
      <stop offset="0" stop-color="#98cc27"/>
      <stop offset="1" stop-color="#44b2e2"/>
    </linearGradient>
  </defs>
  <path id="Trazado_84" data-name="Trazado 84" d="M29.713,4A32.635,32.635,0,0,0,17.505,6.485,33.076,33.076,0,0,0,5.3,4a2.808,2.808,0,0,0-2.8,2.8V27.141a2.813,2.813,0,0,0,2.8,2.8,31.514,31.514,0,0,1,11.918,2.492.814.814,0,0,0,.56,0A31.447,31.447,0,0,1,29.7,29.938a2.819,2.819,0,0,0,2.8-2.8V6.795A2.8,2.8,0,0,0,29.713,4ZM5.3,28.412a1.276,1.276,0,0,1-1.272-1.272V6.795A1.276,1.276,0,0,1,5.3,5.523,31.139,31.139,0,0,1,16.732,7.838V30.625A32.362,32.362,0,0,0,5.623,28.412Zm25.687-1.272a1.282,1.282,0,0,1-1.272,1.272,31.937,31.937,0,0,0-11.455,2.213V7.838A31.409,31.409,0,0,1,29.713,5.523a1.271,1.271,0,0,1,1.272,1.272Z" transform="translate(-2.5 -3.995)" fill="url(#linear-gradient)"/>
</svg>
