<svg xmlns="http://www.w3.org/2000/svg" xmlns:xlink="http://www.w3.org/1999/xlink" width="35.951" height="28.956" viewBox="0 0 35.951 28.956">
  <defs>
    <linearGradient id="linear-gradient" y1="0.5" x2="1" y2="0.5" gradientUnits="objectBoundingBox">
      <stop offset="0" stop-color="#98cc27"/>
      <stop offset="1" stop-color="#44b2e2"/>
    </linearGradient>
  </defs>
  <path id="Trazado_91" data-name="Trazado 91" d="M104.258,52.214,87.088,43.528h-.051a.816.816,0,0,0-.145-.043h-.13l-.1-.036a.853.853,0,0,0-.145.043h-.051L69.287,52.214a.724.724,0,0,0,0,1.289l.847.427v6.3a2.173,2.173,0,1,0,1.448,0v-5.56l3.706,1.875V69.392c.123,2.9,10.316,3.011,11.488,3.011s11.365-.087,11.467-3.011V56.543l6-3.04a.723.723,0,0,0,0-1.289ZM70.836,62.993a.724.724,0,1,1,.512-.212A.723.723,0,0,1,70.836,62.993Zm25.959,6.3c-.362.6-3.981,1.665-10.048,1.665S77.105,69.9,76.714,69.3V57.274l9.722,4.915h.145a.757.757,0,0,0,.181,0,.757.757,0,0,0,.181,0h.145L96.8,57.274Zm.442-13.863L86.762,60.735,72.624,53.583H86.762a.724.724,0,0,0,0-1.448H72.624l14.138-7.152,15.571,7.876Z" transform="translate(-68.687 -43.448)" fill="url(#linear-gradient)"/>
</svg>
