<svg xmlns="http://www.w3.org/2000/svg" xmlns:xlink="http://www.w3.org/1999/xlink" width="26.001" height="37" viewBox="0 0 26.001 37">
  <defs>
    <linearGradient id="linear-gradient" y1="0.5" x2="1" y2="0.5" gradientUnits="objectBoundingBox">
      <stop offset="0" stop-color="#98cc27"/>
      <stop offset="1" stop-color="#44b2e2"/>
    </linearGradient>
  </defs>
  <g id="Layer_1" data-name="Layer 1" transform="translate(-8 -1)">
    <path id="Trazado_85" data-name="Trazado 85" d="M8,15.53C8,25.457,19.963,37.008,20.472,37.5L21,38l.528-.505C22.038,37.008,34,25.457,34,15.53,34,8.827,30.6,1,21,1S8,8.827,8,15.53Zm24.471,0c0,8.138-9.151,17.971-11.471,20.333C18.68,33.5,9.529,23.668,9.529,15.53c0-9.585,5.926-13,11.471-13S32.471,5.945,32.471,15.53Z" fill="url(#linear-gradient)"/>
    <path id="Trazado_86" data-name="Trazado 86" d="M15,14.647A7.647,7.647,0,1,0,22.647,7,7.656,7.656,0,0,0,15,14.647Zm13.765,0a6.118,6.118,0,1,1-6.118-6.118A6.125,6.125,0,0,1,28.765,14.647Z" transform="translate(-1.647 -1.412)" fill="url(#linear-gradient)"/>
  </g>
</svg>
